<?xml version="1.0" encoding="UTF-8"?>
<svg id="Layer_1" data-name="Layer 1" xmlns="http://www.w3.org/2000/svg" viewBox="0 0 260.46 92.5">
  <defs>
    <style>
      .cls-1 {
        fill: #fffef3;
      }

      .cls-2 {
        fill: #f5fd62;
      }
    </style>
  </defs>
  <path class="cls-1" d="M127.65,32.64L111.8,0h-37.13v21.34C68.3,7.46,55.05,0,33.04,0H0v92.5h33.17c21.16,0,34.89-7.68,41.5-21.89v21.89h33.04v-41.89h1.32l3.04,7.66,7.27,17.05h16.52l7.27-17.05,3.04-7.66h1.32v41.89h33.04V0h-37.13l-15.72,32.64ZM35.81,62.11h-2.77v-31.19h1.85c6.87,0,10.7,5.55,10.7,15.46s-3.57,15.72-9.78,15.72ZM217.51,30.39v7.53h18.76v30.4h-18.76v24.18h-33.04V0h51.8v30.39h-18.76Z"/>
  <rect class="cls-2" x="236.28" y="68.32" width="24.18" height="24.18"/>
</svg>